<svg width="80" height="80" viewBox="0 0 80 80" fill="none" xmlns="http://www.w3.org/2000/svg">
<path d="M36.6667 26.6667C42.1895 26.6667 46.6667 22.1895 46.6667 16.6667C46.6667 11.1438 42.1895 6.66667 36.6667 6.66667C31.1438 6.66667 26.6667 11.1438 26.6667 16.6667C26.6667 22.1895 31.1438 26.6667 36.6667 26.6667Z" fill="#A3ADBA"/>
<path d="M68.4196 42.8629C71.5381 38.903 73.068 34.0462 72.6172 29.5329L71.9173 22.5684C71.1296 14.6924 65.3076 8.87044 57.4219 8.08268L52.6221 7.61555C50.7813 7.41699 49.1618 8.77766 48.9828 10.6103C48.8037 12.4414 50.1449 14.0723 51.9775 14.2497L56.7676 14.7168C61.543 15.1937 64.8063 18.457 65.2832 23.234L65.9831 30.1986C66.2647 33.0078 65.2425 36.1214 63.1999 38.7158L62.2542 39.8958C54.9902 49.0592 46.6846 57.3535 37.5651 64.5524C34.9512 66.6178 31.5869 67.0882 29.6061 65.7536C23.4717 61.696 18.304 56.5283 14.2285 50.3678C13.724 49.6191 13.4668 48.6865 13.4668 47.5993C13.4668 45.9082 14.1895 44.0251 15.4509 42.4316C18.9356 38.0159 22.6497 33.8297 26.4909 29.9902C27.793 28.6898 27.793 26.5788 26.4909 25.2767C25.1888 23.9746 23.0794 23.9746 21.7774 25.2767C17.7523 29.2985 13.8639 33.6816 10.2197 38.2975C8.01433 41.084 6.80014 44.3864 6.80014 47.5993C6.80014 50.0065 7.45769 52.2542 8.68653 54.0723C13.2406 60.9587 19.0414 66.7594 25.9017 71.2956C27.7458 72.5423 29.9935 73.1999 32.4007 73.1999C35.6136 73.1999 38.916 71.9857 41.6992 69.7835C51.2207 62.2673 59.8942 53.6051 67.4675 44.0511L68.4196 42.8629Z" fill="#A3ADBA"/>
<path d="M59.0236 25.6903C60.3255 24.3886 60.3255 22.278 59.0236 20.9764C57.722 19.6745 55.6114 19.6745 54.3097 20.9764C53.0078 22.278 53.0078 24.3886 54.3097 25.6903C55.6114 26.992 57.722 26.992 59.0236 25.6903Z" fill="#A3ADBA"/>
</svg>
